<svg xmlns="http://www.w3.org/2000/svg" width="881.631" height="587.665" xmlns:v="https://vecta.io/nano"><path fill="#ffb6b6" d="M150.925 561.321l13.282 3.597 20.199-49.523-19.605-5.31-13.876 51.236z"/><path d="M146.703 575.051l40.848 11.064.14-.517c2.378-8.781-2.812-17.826-11.592-20.205h-.001l-5.928-7.682-15.455 1.89-3.566-.966z" fill="#2f2e41"/><path fill="#ffb6b6" d="M242.64 572.847l13.761-.001 6.547-53.082-20.311.001.003 53.082z"/><path d="M242.155 587.203l42.319-.002v-.535c-.001-9.097-7.375-16.471-16.472-16.472h-.001l-7.73-5.865-14.423 5.865h-3.694zm6.36-320.44l18.468 261.578-29.741 2.635-41.492-193.86 4.598 112.166-16.468 88.22-25.174-12.173.418-91.859-33.051-148.442 8.797-18.265z" fill="#2f2e41"/><path d="M130.292 299.309l-.185-.259c-9.856-13.799 4.968-46.958 7.203-51.765h0a12.07 12.07 0 0 1-8.26-12.889l.964-8.193 1.005-8.036-7.197-7.197-.02-.18-4.142-36.242-6.022-24.072a52.85 52.85 0 0 1 15-51.216l13.921-2.21 16.918-16.301h27.282l9.354 8.937c17.463 3.063 20.463 2.063 35.463 20.063l-6.816 55.962-1.7 7.699.005 10.442 4.323 4.804a14.95 14.95 0 0 1 3.546 12.932l-.568 2.842h0c4.458 1.911 8.713 35.866 9.729 40.608l1.518 7.085c1.299 1.714 9.873 13.146 9.873 16.271 0 .469-.346.923-1.09 1.426-5.843 3.956-29.138 32.022-43.431 26.303-15.225-6.088-75.747 3.045-76.357 3.138z" fill="#3f3d56"/><path d="M126.626 234.234s7.006-39.595-.052-54.485l-28 2 4.261 56.487 24.477 62.717c-1.033 5.344 1.942 10.654 7.039 12.563s10.828-.14 13.56-4.848 1.666-10.7-2.521-14.178z" fill="#ffb6b6"/><path d="M98.574 158.749l1.733-18.871c1.317-14.345 8.301-27.573 19.403-36.752h0a23.69 23.69 0 0 1 24.787-3.272h0c11.289 5.197 16.623 18.25 12.205 29.866-6.472 16.972-4.135 34.921-16.753 37.109l1.371 6.522-12.407 40.49-35.338-4.094z" fill="#3f3d56"/><path d="M237.354 287.934c-3.424 4.231-3.295 10.316.306 14.397s9.623 4.968 14.247 2.097 6.501-8.661 4.441-13.699l11.713-66.298-6.89-56.226-27.849 3.525c-4.003 15.985 10.625 53.439 10.625 53.439z" fill="#ffb6b6"/><path d="M271.561 194.682l-33.851 10.939-13.033-20.332.066-6.665c-12.803.327-21.096-34.674-30.768-50.05-6.609-10.525-3.936-24.37 6.116-31.679h0a23.69 23.69 0 0 1 24.948-1.648h0c12.686 6.826 22.125 18.429 26.228 32.237l5.397 18.166z" fill="#3f3d56"/><circle cx="171.276" cy="42.575" r="30.299" fill="#ffb6b6"/><g fill="#2f2e41"><path d="M149.287 63.931l-.773-.718c-.009.024-.011.05-.021.074z"/><path d="M196.105 10.58a17.18 17.18 0 0 0-6.067-5.85 25.38 25.38 0 0 0-5.304-1.879l-4.795-1.308c-2.457-.76-4.984-1.269-7.544-1.519a19.42 19.42 0 0 0-17.737 9.623c-1.449 2.57-2.611 5.772-5.407 6.712-2.254.758-4.714-.311-7.084-.104a8.53 8.53 0 0 0-6.476 4.77 18.38 18.38 0 0 0-1.699 8.141 45.62 45.62 0 0 0 14.522 34.048c.782-2.061-.506-4.287-1.524-6.259-1.03-1.995-1.667-4.777.059-6.214 1.92-1.599 4.996-.048 7.267-1.091 1.476-.848 2.428-2.378 2.536-4.077.22-1.657-.01-3.341.094-5.009a12.54 12.54 0 0 1 13.298-11.738q.057.004.113.008c5.168.369 10.184 3.901 15.158 2.448 2.335-.682 4.326-2.418 6.741-2.711 2.674-.324 5.19 1.186 7.461 2.635 1.667-7.08.362-14.534-3.612-20.627z"/></g><path d="M354.432 570.18l-7.71-12.39-1.54 7.08-.79 3.75-6.8-5.26q-10.5-7.62-20.99-15.26l2.19 12.7c1.35 7.82 2.76 15.8 6.1 22.95.37.81.77 1.61 1.2 2.39h32.54c.262-.725.443-1.476.54-2.24.008-.05.011-.1.01-.15.51-4.85-2.17-9.42-4.75-13.57z" fill="#f0f0f0"/><path d="M392.293 587.358l-315.357.307a1.19 1.19 0 1 1 0-2.381l315.357-.307a1.19 1.19 0 1 1 0 2.381z" fill="#cacaca"/><path d="M718.264 193.396c-.143 72.555-55.615 133.016-127.89 139.39S452.9 289.341 440.06 217.931s30.923-140.82 100.892-160.02 143.028 18.151 168.435 86.113l.894 2.478v.008q1.941 5.481 3.419 11.167a141.16 141.16 0 0 1 4.564 35.72z" fill="#3f3d56"/><g fill="#6c63ff"><path d="M561.667 98.162a47.36 47.36 0 0 0-41.577-1.701c-5.813 2.53-11.934 7.068-13.874 15.264 7.843-4.629 17.996 2.685 20.014 14.417l-.471.13c-1.066 8.126 1.314 16.974 5.921 22.013a15.48 15.48 0 0 1 7.431-11.021c3.385-2.225 7.13-3.842 9.713-7.666 3.063-4.534 3.841-11.161 5.058-17.207s3.525-12.543 7.784-14.228zm-43.903 69.152c-2.172 3.262-5.074 5.309-7.677 7.858a17.67 17.67 0 0 0-5.583 10.437c-.329 2.839.18 5.724.11 8.595s-1.027 6.101-2.98 6.814c-3.082 1.113-5.434-4.611-8.602-5.011-2.517-.314-4.784 3.646-4.054 7.081s4.156 4.956 6.124 2.713c1.78 2.988.525 8.406-2.149 9.324l-.839 5.638c-6.76-4.729-13.59-9.536-19.338-16.46a49.96 49.96 0 0 1-11.386-26.913c-.745-7.959.361-17.064-3.293-23.188-2.925-4.901-7.944-5.983-12.461-5.678a44.23 44.23 0 0 0-2.478.251 139.61 139.61 0 0 1 10.108-23.133 9.93 9.93 0 0 0 2.533-1.576c4.203-3.568 6.07-10.79 9.481-15.786q.329-.482.682-.941c3.49-4.556 8.163-6.901 12.68-9.081 9.998-4.854 20.287-9.771 30.842-9.096l-3.003.29q-5.258 14.727-10.524 29.454-.8 2.258-1.615 4.525c-1.992 5.583-4.046 11.527-3.741 17.777.18 3.701 1.466 7.654 3.913 8.924 2.282 1.176 4.776-.267 6.979-1.694l2.792-1.796c3.348-2.157 7.058-4.368 10.594-2.925 3.239 1.317 5.63 5.717 6.085 10.461.417 4.612-.708 9.232-3.199 13.135zm19.915 67.029q-14.669-9.032-29.339-18.064l.166-.428c-6.08 2.316-8.605 13.124-7.6 21.963s4.412 16.74 6.134 25.353c2.321 11.786 1.445 23.978-2.537 35.311a289.14 289.14 0 0 0 33.971-46.811c1.359-2.105 2.395-4.402 3.073-6.814a10.84 10.84 0 0 0-.718-7.709c-.801-1.181-1.883-2.144-3.149-2.802zm-38.597-109.546a10.82 10.82 0 0 0-.496 7.864 8.72 8.72 0 0 0 4.87 4.511l5.404 2.678c1.798.891 3.735 1.791 5.568 1.058 2.21-.884 3.743-4.349 3.346-7.566-.422-3.423-2.58-5.778-4.575-7.783q-4.189-4.209-8.378-8.419l-1.574 1.928a21.02 21.02 0 0 0-4.165 5.73zm190.214 36.596q3.647.859 7.293 1.717c-.424 8.21-4.493 15.809-9.951 18.562-2.274 1.145-4.807 1.568-6.689 3.709-1.702 1.945-2.564 4.972-3.356 7.865q-2.082 7.575-4.164 15.15c-1.49 5.442-3.403 11.488-7.277 13.449-3.325 1.686-7.128-.377-9.685-3.835s-4.117-8.108-5.63-12.641c.094 4.94-2.203 9.787-5.458 11.504-3.262 1.717-7.23.165-9.41-3.67-1.568-2.752-2.219-6.383-3.756-9.175s-4.76-4.391-6.438-1.772c-1.106 1.741-.965 4.407-1.514 6.619a7.19 7.19 0 0 1-6.007 5.779c-2.746-.063-5.346-1.251-7.191-3.286a32.58 32.58 0 0 1-8.932-18.013 21.49 21.49 0 0 1 .251-9.849c.965-3.05 3.293-5.403 5.607-4.823 1.521-3.215-1.482-7.481-4.187-7.105-2.713.376-4.838 3.286-7.065 5.521-2.219 2.235-5.325 3.858-7.56 1.639.104 1.69-1.182 3.145-2.872 3.249q-.12.007-.241.005a11.12 11.12 0 0 1-4.054-2.149c-5.121-3.192-11.622-1.074-15.26 4.964 2.274-9.677 5.607-20.781 12.594-23.055 2.855-.933 5.968-.165 8.665-1.78 4.776-2.862 5.74-13.676 1.615-18.138.525 4.219.424 9.144-1.804 12.029s-6.901 1.004-6.618-3.262a2.86 2.86 0 0 1-5.317 1.129c-1.482-2.258-1.357-5.952-.306-8.649a20.38 20.38 0 0 1 4.572-6.493c3.725-3.991 7.505-8.03 11.818-10.539 4.321-2.509 9.308-3.356 13.637-.863 2.282 1.317 4.29 3.513 6.619 4.674a4.9 4.9 0 0 0 3.704.608c1.266-.297 2.363-1.084 3.049-2.19q.039-.063.077-.128c1.733-3.043.917-7.56 1.56-11.363 1.153-6.72 7.873-9.865 11.598-5.427-2.784-.714-5.662 2.58-6.007 6.572-.353 3.991 1.663 8.022 4.36 9.23 4.533 2.007 8.971-3.043 12.398-7.716q5.364-7.34 10.743-14.672c.573-.832 1.215-1.614 1.921-2.337 2.331-2.272 6.024-2.347 8.446-.172 3.623 2.956 5.325 9.018 8.297 13.19 4.313 6.062 10.767 7.536 16.774 8.712q6.716 1.306 13.441 2.627a139.27 139.27 0 0 1 7.803 17.229 47.22 47.22 0 0 0-20.091 17.37zm24.404-3.717c-.919 2.708-1.421 5.54-1.49 8.399-3.843-4.689-4.454-13.48-1.929-19.565q1.941 5.481 3.419 11.167zm-9.928 98.07a140.63 140.63 0 0 1-11.684 19.55c-2.823-1.208-5.858.949-8.501 2.972-2.76 2.117-6.077 4.18-8.908 2.251-2.894-1.976-3.827-7.505-2.909-11.888 1.054-4.044 2.899-7.839 5.427-11.167 2.353-3.513 4.87-7.16 8.14-8.524 3.278-1.364 7.489.565 8.446 5.223l2.321-.078c-1.302-1.788-.619-5.489 1.129-6.14 2.015-.761 3.764 2.007 4.956 4.454l1.584 3.349zm-88.9-33.123c-4.989.314-8.941-5.828-11.567-11.871s-5.022-12.952-9.524-16.028c-2.572-1.757-5.505-1.998-8.295-2.85a10.27 10.27 0 0 1-7.044-6.202l-3.165-1.278a47.53 47.53 0 0 0-12.016 8.568 26.86 26.86 0 0 0-7.16 15.653c-.605 6.335 1.628 13.399 5.799 15.778 3.296 1.88 7.134.695 10.472 2.417 4.171 2.151 6.648 8.398 7.585 14.567s.7 12.58 1.371 18.818 2.519 12.73 6.345 15.928c4.787 4.001 11.812.676 13.959-6.607 1.053-3.572 1.017-7.603 1.805-11.312 1.388-6.53 5.132-11.376 8.102-16.732s5.308-12.632 3.333-18.849zm-49.301-64.171c.465.428.899.889 1.299 1.379a4.53 4.53 0 0 1-.08 4.679c1.215-.069 2.346-.644 3.118-1.585a20.04 20.04 0 0 0 2.39-3.367 3.67 3.67 0 0 0 .705-2.937c-.236-.673-.793-.96-1.184-1.465a9.96 9.96 0 0 1-1.093-3.176 5.73 5.73 0 0 0-4.151-4.375l.25.048a2.37 2.37 0 0 0-1.111 2.526c.151.979.78 1.791.718 2.789-.09 1.435-1.524 2.109-1.613 3.544a2.74 2.74 0 0 0 .752 1.939zm-8.548-24.388l.022-.004c.153-.14.296-.291.426-.453z"/><path d="M558.52 140.8a4.35 4.35 0 0 0 1.354-4.313c-.362-1.632-1.645-2.729-2.828-2.428-.698.707-1.711 1.006-2.681.789-.731-.188-1.535-.673-2.169-.122a3.29 3.29 0 0 0-.739 1.443q-.352 1.081-.705 2.163c-.112.258-.141.544-.083.819a.69.69 0 0 0 .532.423q2.114.623 4.227 1.246a3.64 3.64 0 0 0 3.091-.02zm106.367 93.003q-.977-1.6-1.954-3.199c-.64-1.235-1.514-2.333-2.575-3.233a2.28 2.28 0 0 0-3.214.284l-.034.041.079.609a13.76 13.76 0 0 1 3.432 6.696c.148 1.09.097 2.218.227 3.312a3.86 3.86 0 0 0 1.207 2.701c1.026.685 2.23-.325 2.96-1.558.652-1.012.945-2.215.831-3.414-.163-.805-.489-1.567-.959-2.24zm10.218 1.388c.124-.998.043-2.011-.238-2.977a6.53 6.53 0 0 1 .995-3.705 12.05 12.05 0 0 0 1.55-3.397 2.84 2.84 0 0 0-.074-1.664c-.216-.484-.738-.705-1.037-.322l.641.413a5.85 5.85 0 0 0-2.601.126 3.22 3.22 0 0 0-1.971 2.222 13.8 13.8 0 0 1-.517 2.306c-.382.786-1.122 1.047-1.588 1.737-.644 1.242-.62 2.725.065 3.946a4.61 4.61 0 0 0 2.605 2.049c.783.281 1.814.296 2.172-.733zm18.194 5.49a8.95 8.95 0 0 0 1.127 2.069c.871.877 2.055.338 3.112.125a5.38 5.38 0 0 1 5.118 2.053 13.03 13.03 0 0 0-7.492-9.348 22.01 22.01 0 0 0-7.705-1.205l-.447.115c1.14 3.319 4.721 3.245 6.288 6.191zm-77.062 6.789l.007.014.13-.251z"/><path d="M613.477 252.812a24.52 24.52 0 0 0-1.549 3.402 29.57 29.57 0 0 0-1.122 5.821c-.14 1.122-.183 2.554.519 3.101.417.277.976.201 1.304-.177.39-.413.71-.888.945-1.405a32.37 32.37 0 0 0 3.191-7.575 13.18 13.18 0 0 0-.523-8.495q-1.383 2.664-2.767 5.328zm-26.628-142.341a3.14 3.14 0 0 0 3.387.661 11.2 11.2 0 0 0 3.187-2.105 7.5 7.5 0 0 0 1.932-2.107c.559-.99.702-2.161.395-3.256-.439-1.056-1.392-1.81-2.521-1.994q-2.346-.696-4.692-1.391l1.131-1.02c-1.164-.625-2.452.535-3.179 1.97-.467.937-.792 1.938-.965 2.971-.501 2.183-.016 4.477 1.325 6.271zm27.611-9.269c.915 1.008 2.455 1.134 3.521.286.894-.671 1.46-1.691 1.557-2.805.111-1.23-.498-2.597-1.366-2.704l.199-1.152c-1.673-.302-3.733-.363-4.63 1.669a4.77 4.77 0 0 0 .718 4.705z"/></g><g opacity=".35"><path d="M879.214 200.35c9.235-4.027-9.494-6.371-30.743-7.142s-46.955-.728-60.534-2.92c-13.133-2.12-12.166-5.89-13.27-9.305s-6.154-6.918-26.647-7.677c-25.537-.946-67.649 2.696-86.927.509-17.99-2.04-7.296-8.44-33.528-8.685-14.979-.14-34.277 1.97-50.944 2.479-11.815.512-23.651-.105-35.348-1.843-8.124-1.331-13.782-3.018-22.925-4.194-24.004-3.087-70.969-2.049-112.886 1.907s-77.848 10.439-98.112 16.86-25.862 12.743-21.142 18.104c3.014 3.423 10.727 6.624 29.437 8 34.996 2.573 97.303-1.856 133.465.485 20.155 1.305 29.096 4.539 46.78 6.309 18.998 1.902 46.81 2.002 74.135 1.957l174.741-1.75c24.851-.448 50.891-1.03 77.335-3.164s53.416-6.251 58.995-10.11" fill="#fff"/></g><g fill="#6c63ff"><path d="M718.651 378.203q-19.368 0-42.457-1.464c-79.614-5.056-182.738-22.633-290.376-49.492s-206.93-59.794-279.585-92.734c-35.393-16.047-62.556-31.236-80.735-45.147C6.251 174.638-2.168 161.801.474 151.213c5.148-20.629 50.731-25.142 88.064-25.295l.013 3c-51.268.21-81.514 8.387-85.166 23.022-4.652 18.64 33.287 47.741 104.087 79.841 72.496 32.868 171.605 65.739 279.073 92.557s210.401 44.363 289.84 49.408c77.579 4.928 124.743-2.937 129.395-21.578 3.862-15.477-21.598-38.275-71.689-64.198l1.379-2.664c36.397 18.836 78.646 45.852 73.222 67.589-2.643 10.589-16.105 17.965-40.015 21.923-13.629 2.256-30.37 3.387-50.024 3.387z"/><path d="M225.996 382.11c-35.599.001-68.694-1.221-98.322-3.686-38.727-3.223-69.415-8.403-91.21-15.396-23.077-7.405-35.319-16.667-36.388-27.528-2.083-21.158 39.334-40.725 74.445-53.413l1.02 2.822c-48.217 17.424-73.957 35.286-72.479 50.298 1.882 19.119 47.392 33.781 124.862 40.228 79.325 6.601 183.717 4.262 293.947-6.59s213.076-28.906 289.591-50.846c74.726-21.426 116.505-44.68 114.623-63.799-1.562-15.874-33.203-28.793-89.092-36.379l.403-2.973c40.61 5.512 89.479 16.762 91.674 39.058 1.069 10.861-9.133 22.332-30.323 34.094-20.015 11.109-49.104 22.173-86.458 32.883-76.685 21.988-179.72 40.081-290.125 50.948-69.259 6.816-136.245 10.279-196.167 10.279z"/><circle cx="437.848" cy="427.992" r="17.483"/></g><circle cx="93.574" cy="324.773" r="17.483" fill="#e6e6e6"/><circle cx="414.573" cy="63.572" r="10.702" fill="#ff6584"/><circle cx="349.82" cy="137.582" r="17.483" fill="#e6e6e6"/></svg>